<svg width="14" height="16" viewBox="0 0 14 16" fill="none" xmlns="http://www.w3.org/2000/svg">
<path d="M6.29684 0.0468621C5.44372 0.178112 4.68122 0.584362 4.08434 1.21874C3.42809 1.91561 3.08747 2.72186 3.04059 3.68749C2.97497 5.03749 3.63747 6.32811 4.78122 7.07499C5.34372 7.44374 5.88434 7.63124 6.54059 7.68436C7.75622 7.77811 8.79372 7.39686 9.63122 6.54374C10.2968 5.86874 10.6343 5.13124 10.7156 4.19061C10.8281 2.93436 10.3531 1.76561 9.40622 0.946862C8.79372 0.421862 8.23122 0.159362 7.45309 0.0468621C7.07809 -0.00626326 6.64059 -0.00938797 6.29684 0.0468621Z" fill="#504D4D"/>
<path d="M3.4592 7.75321C2.0467 7.90321 1.06545 8.91571 0.609199 10.7032C0.306074 11.8938 0.227949 13.3251 0.421699 14.1095C0.581074 14.7376 1.10295 15.3751 1.70607 15.6813C1.97795 15.8188 2.36857 15.9313 2.6967 15.9688C2.89045 15.9938 4.36545 16.0001 7.18732 15.9938L11.3904 15.9845L11.6561 15.9095C12.6436 15.6407 13.3186 14.9782 13.5654 14.047C13.6936 13.5626 13.6779 12.4063 13.5279 11.4938C13.1998 9.46259 12.3686 8.24384 11.0529 7.86259C10.7529 7.77509 10.2154 7.70946 10.0561 7.74071C9.90295 7.76884 9.69045 7.88134 9.2092 8.19071C8.6967 8.52196 8.62482 8.55946 8.24045 8.70321C7.7967 8.86884 7.43107 8.94071 7.00295 8.94071C6.56545 8.94071 6.22795 8.87821 5.7842 8.72196C5.36545 8.57196 5.3467 8.56259 4.69045 8.14696C4.3467 7.92821 4.09045 7.78759 3.99045 7.75946C3.81545 7.71571 3.81545 7.71571 3.4592 7.75321Z" fill="#504D4D"/>
</svg>
