<svg width="12" height="16" viewBox="0 0 12 16" fill="none" xmlns="http://www.w3.org/2000/svg">
<g clip-path="url(#clip0_2092_78)">
<path d="M2.96698 1.58057C2.76463 1.58057 2.60059 1.41653 2.60059 1.21417V0.366151C2.60059 0.163796 2.76463 -0.000245094 2.96698 -0.000245094L6.64829 -0.000245094C6.85064 -0.000245094 7.01468 0.163796 7.01468 0.36615V1.21417C7.01468 1.41653 6.85064 1.58057 6.64829 1.58057L2.96698 1.58057Z" fill="#504D4D"/>
<path d="M8.39572 3.04935H9.31193V12.9371H8.39572V3.04935ZM7.47951 2.13315H2.31435C1.80836 2.13315 1.39814 2.54336 1.39814 3.04935L1.39814 12.9371C1.39814 13.4431 1.80836 13.8533 2.31435 13.8533H7.47951C7.98551 13.8533 8.39572 13.4431 8.39572 12.9371H9.31193L9.30217 13.1247C9.21451 13.9869 8.52933 14.6721 7.66705 14.7598L7.47951 14.7695H2.31435C1.36567 14.7695 0.585614 14.0486 0.491701 13.1247L0.481934 12.9371L0.481934 3.04935L0.491701 2.86182C0.58561 1.93792 1.36567 1.21695 2.31435 1.21695H7.47951L7.66705 1.22671C8.52933 1.31433 9.21452 1.99955 9.30217 2.86182L9.31193 3.04935H8.39572C8.39572 2.54336 7.98551 2.13315 7.47951 2.13315Z" fill="#504D4D"/>
<rect x="1.59229" y="10.9834" width="6.5659" height="2.60609" rx="0.452821" fill="#504D4D"/>
<rect x="1.59229" y="8.15088" width="6.5659" height="2.60609" rx="0.452821" fill="#504D4D"/>
<path d="M6.64979 -0.00349832L6.72304 0.00431466C6.8664 0.0334759 6.97897 0.146193 7.00826 0.289485L7.01607 0.362731V1.21141L7.00826 1.28465C6.97905 1.42804 6.86646 1.54063 6.72304 1.56982L6.64979 1.57764L2.96736 1.57764C2.79023 1.57755 2.64292 1.45173 2.60889 1.28465L2.60107 1.21141V0.362731L2.60889 0.289485C2.64301 0.122529 2.79031 -0.00341105 2.96736 -0.00349832L6.64979 -0.00349832Z" fill="#504D4D"/>
<path d="M11.0772 13.8462C11.0772 15.0358 10.1129 16.0001 8.92338 16.0001C7.73384 16.0001 6.76953 15.0358 6.76953 13.8462C6.76953 12.6567 7.73384 11.6924 8.92338 11.6924C10.1129 11.6924 11.0772 12.6567 11.0772 13.8462Z" fill="#79CA4D"/>
</g>
<defs>
<clipPath id="clip0_2092_78">
<rect width="16" height="12" fill="white" transform="matrix(0 -1 1 0 0 16)"/>
</clipPath>
</defs>
</svg>
