<svg width="16" height="16" viewBox="0 0 16 16" fill="none" xmlns="http://www.w3.org/2000/svg">
<g clip-path="url(#clip0_2092_193)">
<path d="M5.59375 3.02187V6.04688L3.76562 4.21875L1.9375 2.39062L1.36875 2.9625L0.796875 3.53125L3.03125 5.76562L5.26562 8L3.03125 10.2344L0.796875 12.4688L1.36875 13.0375L1.9375 13.6094L3.76562 11.7812L5.59375 9.95312V12.9781V16H5.99375H6.39062L8.66875 13.7219L10.9469 11.4437L9.25625 9.73125C8.325 8.79063 7.5625 8.0125 7.5625 8C7.5625 7.9875 8.325 7.20937 9.25625 6.26875L10.9469 4.55625L8.66875 2.27812L6.39062 0H5.99375H5.59375V3.02187ZM7.96875 3.82812L8.70312 4.5625L7.94375 5.32187L7.1875 6.07812V4.58437C7.1875 3.76562 7.19687 3.09375 7.2125 3.09375C7.225 3.09375 7.56562 3.425 7.96875 3.82812ZM7.96875 12.1719C7.56562 12.575 7.225 12.9062 7.2125 12.9062C7.19687 12.9062 7.1875 12.2344 7.1875 11.4156V9.92188L7.94375 10.6781L8.70312 11.4375L7.96875 12.1719Z" fill="#797979"/>
<path d="M11.0026 1.914C10.737 1.97963 10.5339 2.22025 10.5058 2.51088C10.4776 2.8015 10.5183 2.85463 11.4214 3.75775L12.2495 4.58588L11.4089 5.42963C10.5401 6.3015 10.4995 6.3515 10.4995 6.59838C10.4995 6.83275 10.6745 7.1015 10.887 7.19838C11.0433 7.27025 11.2745 7.27338 11.4308 7.21088C11.5058 7.17963 11.8245 6.88275 12.3651 6.34213L13.187 5.52338L14.0214 6.35463C14.9339 7.26088 14.9558 7.2765 15.2683 7.2515C15.7183 7.214 15.9995 6.7015 15.7901 6.30463C15.7526 6.23588 15.362 5.82025 14.9245 5.38275L14.1245 4.58588L14.962 3.74213C15.6589 3.04213 15.8058 2.8765 15.837 2.77025C15.8933 2.57338 15.8839 2.44213 15.7964 2.26713C15.6558 1.989 15.3683 1.8515 15.0589 1.91713C14.8933 1.9515 14.8714 1.97025 14.037 2.79838L13.187 3.64838L12.3651 2.82963C11.9151 2.38275 11.5058 1.99213 11.4526 1.96713C11.3276 1.90463 11.1339 1.88275 11.0026 1.914Z" fill="#C24A4A"/>
</g>
<defs>
<clipPath id="clip0_2092_193">
<rect width="16" height="16" fill="white"/>
</clipPath>
</defs>
</svg>
