<svg width="11" height="16" viewBox="0 0 11 16" fill="none" xmlns="http://www.w3.org/2000/svg">
<path d="M5.59375 3.02187V6.04688L3.76562 4.21875L1.9375 2.39062L1.36875 2.9625L0.796875 3.53125L3.03125 5.76562L5.26562 8L3.03125 10.2344L0.796875 12.4688L1.36875 13.0375L1.9375 13.6094L3.76562 11.7812L5.59375 9.95312V12.9781V16H5.99375H6.39062L8.66875 13.7219L10.9469 11.4437L9.25625 9.73125C8.325 8.79063 7.5625 8.0125 7.5625 8C7.5625 7.9875 8.325 7.20937 9.25625 6.26875L10.9469 4.55625L8.66875 2.27812L6.39062 0H5.99375H5.59375V3.02187ZM7.96875 3.82812L8.70312 4.5625L7.94375 5.32187L7.1875 6.07812V4.58437C7.1875 3.76562 7.19687 3.09375 7.2125 3.09375C7.225 3.09375 7.56562 3.425 7.96875 3.82812ZM7.96875 12.1719C7.56562 12.575 7.225 12.9062 7.2125 12.9062C7.19687 12.9062 7.1875 12.2344 7.1875 11.4156V9.92188L7.94375 10.6781L8.70312 11.4375L7.96875 12.1719Z" fill="#797979"/>
</svg>
