<svg width="16" height="16" viewBox="0 0 16 16" fill="none" xmlns="http://www.w3.org/2000/svg">
<path d="M5.59375 3.02187V6.04688L3.76562 4.21875L1.9375 2.39062L1.36875 2.9625L0.796875 3.53125L3.03125 5.76562L5.26562 8L3.03125 10.2344L0.796875 12.4688L1.36875 13.0375L1.9375 13.6094L3.76562 11.7812L5.59375 9.95312V12.9781V16H5.99375H6.39062L8.66875 13.7219L10.9469 11.4437L9.25625 9.73125C8.325 8.79063 7.5625 8.0125 7.5625 8C7.5625 7.9875 8.325 7.20937 9.25625 6.26875L10.9469 4.55625L8.66875 2.27812L6.39062 0H5.99375H5.59375V3.02187ZM7.96875 3.82812L8.70312 4.5625L7.94375 5.32187L7.1875 6.07812V4.58437C7.1875 3.76562 7.19687 3.09375 7.2125 3.09375C7.225 3.09375 7.56562 3.425 7.96875 3.82812ZM7.96875 12.1719C7.56562 12.575 7.225 12.9062 7.2125 12.9062C7.19687 12.9062 7.1875 12.2344 7.1875 11.4156V9.92188L7.94375 10.6781L8.70312 11.4375L7.96875 12.1719Z" fill="#26724C"/>
<path d="M13.5219 4.27499C13.2531 4.54374 13.0312 4.77811 13.0312 4.79061C13.0312 4.80311 13.0969 4.95624 13.175 5.13124C13.4625 5.76874 13.6625 6.49374 13.75 7.20311C13.8 7.60624 13.7937 8.48124 13.7344 8.91561C13.6469 9.56874 13.4656 10.2125 13.2 10.8187C13.1219 10.9969 13.05 11.1625 13.0438 11.1875C13.0344 11.2156 13.2031 11.4094 13.4969 11.7031C13.9469 12.15 13.9688 12.1687 14.0156 12.1094C14.1281 11.9625 14.6344 10.8906 14.75 10.5469C15.0625 9.63124 15.1875 8.87499 15.1875 7.91561C15.1875 6.74374 14.9719 5.75624 14.4781 4.64061C14.3625 4.38436 14.0438 3.78124 14.0219 3.78124C14.0188 3.78124 13.7937 4.00311 13.5219 4.27499Z" fill="#26724C"/>
<path d="M10.7188 7.07822L9.79688 8.0001L10.7219 8.9251L11.6469 9.8501L11.7188 9.6501C11.9313 9.06572 12.0344 8.2251 11.975 7.58135C11.9281 7.07197 11.75 6.28135 11.6594 6.18135C11.6469 6.16885 11.225 6.57197 10.7188 7.07822Z" fill="#26724C"/>
</svg>
