<svg width="16" height="16" viewBox="0 0 16 16" fill="none" xmlns="http://www.w3.org/2000/svg">
<path d="M1 0.900391L8.04527 7.99717L15.0905 15.0939" stroke="#797979" stroke-width="1.7"/>
<path d="M7.20508 6.04688V6.0332L9.66895 8.51562C9.97615 8.82948 10.4005 9.26005 10.8672 9.73145L12.5576 11.4434L10.2803 13.7217L8.00195 16H7.20508V9.95312L3.54883 13.6094L2.97949 13.0371L2.4082 12.4688L6.87695 8L2.4082 3.53125L2.97949 2.96289L3.54883 2.39062L7.20508 6.04688ZM8.79883 11.416C8.79883 12.229 8.80781 12.8972 8.82324 12.9062C8.83574 12.9062 9.17695 12.575 9.58008 12.1719L10.3145 11.4375L8.79883 9.92188V11.416ZM8.00195 0L10.2803 2.27832L12.5576 4.55664L10.8672 6.26855C10.686 6.45152 10.5117 6.6287 10.3477 6.79492L9.21875 5.65723L9.55469 5.32227L10.3145 4.5625L9.58008 3.82812C9.17695 3.425 8.83574 3.09375 8.82324 3.09375C8.80781 3.10294 8.79883 3.77106 8.79883 4.58398V5.23438L7.20508 3.62891V0H8.00195Z" fill="#797979"/>
</svg>
