<svg width="16" height="18" viewBox="0 0 16 18" fill="none" xmlns="http://www.w3.org/2000/svg">
<path d="M5.59375 3.02187V6.04687L3.76562 4.21875L1.9375 2.39062L1.36875 2.9625L0.796875 3.53125L3.03125 5.76562L5.26562 8L3.03125 10.2344L0.796875 12.4687L1.36875 13.0375L1.9375 13.6094L3.76562 11.7812L5.59375 9.95312V12.9781V16H5.99375H6.39062L8.66875 13.7219L10.9469 11.4437L9.25625 9.73125C8.325 8.79062 7.5625 8.0125 7.5625 8C7.5625 7.9875 8.325 7.20937 9.25625 6.26875L10.9469 4.55625L8.66875 2.27812L6.39062 -2.38419e-07H5.99375H5.59375V3.02187ZM7.96875 3.82812L8.70312 4.5625L7.94375 5.32187L7.1875 6.07812V4.58437C7.1875 3.76562 7.19687 3.09375 7.2125 3.09375C7.225 3.09375 7.56562 3.425 7.96875 3.82812ZM7.96875 12.1719C7.56562 12.575 7.225 12.9062 7.2125 12.9062C7.19687 12.9062 7.1875 12.2344 7.1875 11.4156V9.92187L7.94375 10.6781L8.70312 11.4375L7.96875 12.1719Z" fill="#CA7D4D"/>
<rect x="7" y="9" width="9" height="9" rx="4.5" fill="white"/>
<path d="M11.0729 10.5523C9.78275 10.6772 8.71162 11.5883 8.39014 12.8321C8.31995 13.103 8.30029 13.2785 8.30029 13.5986C8.30029 13.9187 8.31995 14.0942 8.39014 14.3651C8.57685 15.0895 9.03029 15.7254 9.66061 16.1466C10.1295 16.4596 10.7205 16.6449 11.268 16.6505C11.4491 16.652 11.4617 16.6505 11.5361 16.6126C11.699 16.5326 11.793 16.3866 11.793 16.2097C11.7944 16.1171 11.7874 16.0904 11.7481 16.009C11.6934 15.8981 11.6021 15.8167 11.4968 15.7844C11.4589 15.7731 11.3607 15.7591 11.275 15.7549C10.8455 15.731 10.4931 15.6173 10.1491 15.3871C9.95682 15.2593 9.72238 15.0333 9.59323 14.8522C9.41915 14.608 9.27736 14.2724 9.22402 13.9776C9.18892 13.7937 9.18892 13.4035 9.22402 13.2196C9.27736 12.9248 9.42056 12.5878 9.59323 12.345C9.69571 12.2004 9.92313 11.9687 10.0621 11.8677C10.6321 11.4507 11.3438 11.3314 12.005 11.5434C12.6452 11.7483 13.1604 12.2495 13.385 12.884C13.4285 13.0062 13.4917 13.2743 13.4805 13.2855C13.4776 13.2898 13.3527 13.1901 13.2025 13.0651C12.8838 12.797 12.8249 12.7647 12.6718 12.7647C12.5399 12.7647 12.4486 12.8026 12.3588 12.8939C12.2633 12.9907 12.2296 13.075 12.231 13.2125C12.231 13.3389 12.2605 13.4189 12.3391 13.5059C12.3644 13.5326 12.6817 13.8022 13.0439 14.1054C13.4917 14.4788 13.7289 14.6669 13.7809 14.6908C13.896 14.7441 14.0308 14.7413 14.1487 14.6824C14.1978 14.6585 14.254 14.6206 14.275 14.5995C14.4126 14.4535 15.4135 13.2336 15.4402 13.1803C15.4879 13.082 15.4865 12.9191 15.436 12.8125C15.3012 12.5303 14.932 12.4615 14.7172 12.6805C14.6878 12.71 14.5993 12.8125 14.5207 12.9065C14.4435 13.002 14.3733 13.0792 14.3677 13.0792C14.3621 13.0792 14.3565 13.0665 14.3565 13.0511C14.3565 12.9879 14.254 12.6328 14.1866 12.4615C14.0392 12.0895 13.8174 11.754 13.5141 11.4493C13.0312 10.9622 12.4528 10.6688 11.7846 10.5733C11.5993 10.5467 11.2427 10.5368 11.0729 10.5523Z" fill="#335484"/>
</svg>
