<svg width="13" height="14" viewBox="0 0 13 14" fill="none" xmlns="http://www.w3.org/2000/svg">
<g clip-path="url(#clip0_2018_455)">
<path d="M11.9588 0.659873C4.7859 3.58995 0.273988 5.44601 0.210512 5.49171C-0.0967151 5.72276 -0.0484729 6.22296 0.301918 6.40069C0.337465 6.42101 1.64254 6.66729 3.20153 6.94913L6.03258 7.46456L6.55055 10.3083C7.13707 13.5228 7.08121 13.3069 7.35289 13.439C7.46207 13.4923 7.51539 13.505 7.61442 13.4948C7.77184 13.4796 7.91149 13.406 8.00036 13.2942C8.08161 13.1927 12.9744 1.2464 12.9922 1.10421C13.0353 0.794443 12.7662 0.499912 12.4386 0.499912C12.3904 0.499912 12.1746 0.573545 11.9588 0.659873Z" fill="white"/>
</g>
<defs>
<clipPath id="clip0_2018_455">
<rect width="13" height="13" fill="white" transform="translate(0 0.5)"/>
</clipPath>
</defs>
</svg>
