<svg width="117" height="157" viewBox="0 0 117 157" fill="none" xmlns="http://www.w3.org/2000/svg">
<rect x="19.6123" width="77.0964" height="156.222" fill="#4E77B3"/>
<rect x="1.72619" y="121.428" width="112.868" height="33.067" rx="16.5335" fill="#335484" stroke="#319E77" stroke-width="3.45238"/>
<path d="M37.9032 132.78C38.9299 132.78 39.8306 132.98 40.6052 133.382C41.3892 133.783 41.9912 134.357 42.4112 135.104C42.8406 135.841 43.0552 136.7 43.0552 137.68C43.0552 138.66 42.8406 139.518 42.4112 140.256C41.9912 140.984 41.3892 141.548 40.6052 141.95C39.8306 142.351 38.9299 142.552 37.9032 142.552H34.4872V132.78H37.9032ZM37.8332 140.886C38.8599 140.886 39.6532 140.606 40.2132 140.046C40.7732 139.486 41.0532 138.697 41.0532 137.68C41.0532 136.662 40.7732 135.869 40.2132 135.3C39.6532 134.721 38.8599 134.432 37.8332 134.432H36.4472V140.886H37.8332ZM47.6024 134.362V136.812H50.8924V138.366H47.6024V140.956H51.3124V142.552H45.6424V132.766H51.3124V134.362H47.6024ZM61.3396 135.804C61.3396 136.326 61.2136 136.816 60.9616 137.274C60.7189 137.731 60.3316 138.1 59.7996 138.38C59.2769 138.66 58.6142 138.8 57.8116 138.8H56.1736V142.552H54.2136V132.78H57.8116C58.5676 132.78 59.2116 132.91 59.7436 133.172C60.2756 133.433 60.6722 133.792 60.9336 134.25C61.2042 134.707 61.3396 135.225 61.3396 135.804ZM57.7276 137.218C58.2689 137.218 58.6702 137.096 58.9316 136.854C59.1929 136.602 59.3236 136.252 59.3236 135.804C59.3236 134.852 58.7916 134.376 57.7276 134.376H56.1736V137.218H57.7276ZM70.5011 132.78V134.362H67.8971V142.552H65.9371V134.362H63.3331V132.78H70.5011ZM81.1572 132.78V142.552H79.1972V138.394H75.0112V142.552H73.0512V132.78H75.0112V136.798H79.1972V132.78H81.1572Z" fill="white"/>
<rect x="1.72619" y="1.72619" width="112.868" height="33.067" rx="16.5335" fill="#335484" stroke="#319E77" stroke-width="3.45238"/>
<path d="M32.3268 22.8496L30.1708 19.0416H29.2468V22.8496H27.2868V13.0776H30.9548C31.7108 13.0776 32.3548 13.2129 32.8868 13.4836C33.4188 13.7449 33.8155 14.1043 34.0768 14.5616C34.3475 15.0096 34.4828 15.5136 34.4828 16.0736C34.4828 16.7176 34.2961 17.3009 33.9228 17.8236C33.5495 18.3369 32.9941 18.6916 32.2568 18.8876L34.5948 22.8496H32.3268ZM29.2468 17.5716H30.8848C31.4168 17.5716 31.8135 17.4456 32.0748 17.1936C32.3361 16.9323 32.4668 16.5729 32.4668 16.1156C32.4668 15.6676 32.3361 15.3223 32.0748 15.0796C31.8135 14.8276 31.4168 14.7016 30.8848 14.7016H29.2468V17.5716ZM39.3356 14.6596V17.1096H42.6256V18.6636H39.3356V21.2536H43.0456V22.8496H37.3756V13.0636H43.0456V14.6596H39.3356ZM47.9067 21.2956H51.1267V22.8496H45.9467V13.0776H47.9067V21.2956ZM55.4525 14.6596V17.1096H58.7425V18.6636H55.4525V21.2536H59.1625V22.8496H53.4925V13.0636H59.1625V14.6596H55.4525ZM68.0557 20.9876H64.1637L63.5197 22.8496H61.4617L64.9757 13.0636H67.2577L70.7717 22.8496H68.6997L68.0557 20.9876ZM67.5237 19.4196L66.1097 15.3316L64.6957 19.4196H67.5237ZM76.5792 22.9476C75.8978 22.9476 75.2818 22.8309 74.7312 22.5976C74.1898 22.3643 73.7605 22.0283 73.4432 21.5896C73.1258 21.1509 72.9625 20.6329 72.9532 20.0356H75.0532C75.0812 20.4369 75.2212 20.7543 75.4732 20.9876C75.7345 21.2209 76.0892 21.3376 76.5372 21.3376C76.9945 21.3376 77.3538 21.2303 77.6152 21.0156C77.8765 20.7916 78.0072 20.5023 78.0072 20.1476C78.0072 19.8583 77.9185 19.6203 77.7412 19.4336C77.5638 19.2469 77.3398 19.1023 77.0692 18.9996C76.8078 18.8876 76.4438 18.7663 75.9772 18.6356C75.3425 18.4489 74.8245 18.2669 74.4232 18.0896C74.0312 17.9029 73.6905 17.6276 73.4012 17.2636C73.1212 16.8903 72.9812 16.3956 72.9812 15.7796C72.9812 15.2009 73.1258 14.6969 73.4152 14.2676C73.7045 13.8383 74.1105 13.5116 74.6332 13.2876C75.1558 13.0543 75.7532 12.9376 76.4252 12.9376C77.4332 12.9376 78.2498 13.1849 78.8752 13.6796C79.5098 14.1649 79.8598 14.8463 79.9252 15.7236H77.7692C77.7505 15.3876 77.6058 15.1123 77.3352 14.8976C77.0738 14.6736 76.7238 14.5616 76.2852 14.5616C75.9025 14.5616 75.5945 14.6596 75.3612 14.8556C75.1372 15.0516 75.0252 15.3363 75.0252 15.7096C75.0252 15.9709 75.1092 16.1903 75.2772 16.3676C75.4545 16.5356 75.6692 16.6756 75.9212 16.7876C76.1825 16.8903 76.5465 17.0116 77.0132 17.1516C77.6478 17.3383 78.1658 17.5249 78.5672 17.7116C78.9685 17.8983 79.3138 18.1783 79.6032 18.5516C79.8925 18.9249 80.0372 19.4149 80.0372 20.0216C80.0372 20.5443 79.9018 21.0296 79.6312 21.4776C79.3605 21.9256 78.9638 22.2849 78.4412 22.5556C77.9185 22.8169 77.2978 22.9476 76.5792 22.9476ZM84.8164 14.6596V17.1096H88.1064V18.6636H84.8164V21.2536H88.5264V22.8496H82.8564V13.0636H88.5264V14.6596H84.8164Z" fill="white"/>
</svg>
