<svg width="214" height="111" viewBox="0 0 214 111" fill="none" xmlns="http://www.w3.org/2000/svg">
<path d="M0.5 107C0.5 108.933 2.067 110.5 4 110.5C5.933 110.5 7.5 108.933 7.5 107H0.5ZM4 107H7.5C7.5 70.2127 27.4628 38.0833 57.1633 20.8613L55.4076 17.8335L53.6519 14.8057C21.8808 33.2283 0.5 67.6155 0.5 107H4Z" fill="#C24A4A"/>
<path d="M206.5 107.048C206.5 108.981 208.067 110.548 210 110.548C211.933 110.548 213.5 108.981 213.5 107.048H206.5ZM157.534 17.2754L155.814 20.3238C186.078 37.3962 206.5 69.8394 206.5 107.048H210H213.5C213.5 67.2123 191.627 32.4898 159.253 14.227L157.534 17.2754Z" fill="#C24A4A"/>
<path d="M55.4077 17.8331C70.5785 9.03624 88.2012 4 107 4C125.364 4 142.604 8.80553 157.534 17.2276" stroke="#319E77" stroke-width="7" stroke-linecap="round"/>
<path d="M28.0082 3.27273V12H26.163V5.02415H26.1119L24.1133 6.27699V4.64062L26.2738 3.27273H28.0082ZM33.5043 12.1918C32.7713 12.1889 32.1406 12.0085 31.6122 11.6506C31.0866 11.2926 30.6818 10.7741 30.3977 10.0952C30.1165 9.41619 29.9773 8.59943 29.9801 7.64489C29.9801 6.69318 30.1207 5.8821 30.402 5.21165C30.6861 4.54119 31.0909 4.03125 31.6165 3.68182C32.1449 3.32955 32.7741 3.15341 33.5043 3.15341C34.2344 3.15341 34.8622 3.32955 35.3878 3.68182C35.9162 4.03409 36.3224 4.54545 36.6065 5.21591C36.8906 5.88352 37.0313 6.69318 37.0284 7.64489C37.0284 8.60227 36.8864 9.42045 36.6023 10.0994C36.321 10.7784 35.9176 11.2969 35.392 11.6548C34.8665 12.0128 34.2372 12.1918 33.5043 12.1918ZM33.5043 10.6619C34.0043 10.6619 34.4034 10.4105 34.7017 9.90767C35 9.40483 35.1477 8.65057 35.1449 7.64489C35.1449 6.98295 35.0767 6.43182 34.9403 5.99148C34.8068 5.55114 34.6165 5.22017 34.3693 4.99858C34.125 4.77699 33.8366 4.66619 33.5043 4.66619C33.0071 4.66619 32.6094 4.91477 32.3111 5.41193C32.0128 5.90909 31.8622 6.65341 31.8594 7.64489C31.8594 8.31534 31.9261 8.875 32.0597 9.32386C32.196 9.76989 32.3878 10.1051 32.6349 10.3295C32.8821 10.5511 33.1719 10.6619 33.5043 10.6619ZM41.766 12.1918C41.033 12.1889 40.4023 12.0085 39.8739 11.6506C39.3484 11.2926 38.9435 10.7741 38.6594 10.0952C38.3782 9.41619 38.239 8.59943 38.2418 7.64489C38.2418 6.69318 38.3825 5.8821 38.6637 5.21165C38.9478 4.54119 39.3526 4.03125 39.8782 3.68182C40.4066 3.32955 41.0359 3.15341 41.766 3.15341C42.4961 3.15341 43.1239 3.32955 43.6495 3.68182C44.1779 4.03409 44.5842 4.54545 44.8683 5.21591C45.1523 5.88352 45.293 6.69318 45.2901 7.64489C45.2901 8.60227 45.1481 9.42045 44.864 10.0994C44.5827 10.7784 44.1793 11.2969 43.6538 11.6548C43.1282 12.0128 42.4989 12.1918 41.766 12.1918ZM41.766 10.6619C42.266 10.6619 42.6651 10.4105 42.9634 9.90767C43.2617 9.40483 43.4094 8.65057 43.4066 7.64489C43.4066 6.98295 43.3384 6.43182 43.2021 5.99148C43.0685 5.55114 42.8782 5.22017 42.631 4.99858C42.3867 4.77699 42.0984 4.66619 41.766 4.66619C41.2688 4.66619 40.8711 4.91477 40.5728 5.41193C40.2745 5.90909 40.1239 6.65341 40.1211 7.64489C40.1211 8.31534 40.1879 8.875 40.3214 9.32386C40.4577 9.76989 40.6495 10.1051 40.8967 10.3295C41.1438 10.5511 41.4336 10.6619 41.766 10.6619Z" fill="white"/>
<path d="M173.759 3.27273V12H171.913V5.02415H171.862L169.864 6.27699V4.64062L172.024 3.27273H173.759ZM175.833 12V10.6705L178.939 7.79403C179.204 7.53835 179.425 7.30824 179.604 7.10369C179.786 6.89915 179.924 6.69886 180.018 6.50284C180.111 6.30398 180.158 6.08949 180.158 5.85938C180.158 5.60369 180.1 5.38352 179.983 5.19886C179.867 5.01136 179.708 4.8679 179.506 4.76847C179.304 4.66619 179.076 4.61506 178.82 4.61506C178.553 4.61506 178.32 4.66903 178.121 4.77699C177.922 4.88494 177.769 5.03977 177.661 5.24148C177.553 5.44318 177.499 5.68324 177.499 5.96165H175.748C175.748 5.39062 175.877 4.89489 176.135 4.47443C176.394 4.05398 176.756 3.72869 177.222 3.49858C177.688 3.26847 178.225 3.15341 178.833 3.15341C179.458 3.15341 180.002 3.2642 180.465 3.4858C180.931 3.70455 181.293 4.00852 181.552 4.39773C181.81 4.78693 181.939 5.23295 181.939 5.7358C181.939 6.06534 181.874 6.39062 181.743 6.71165C181.616 7.03267 181.387 7.3892 181.057 7.78125C180.728 8.17045 180.263 8.63778 179.664 9.18324L178.39 10.4318V10.4915H182.054V12H175.833ZM186.813 12.1918C186.08 12.1889 185.45 12.0085 184.921 11.6506C184.396 11.2926 183.991 10.7741 183.707 10.0952C183.426 9.41619 183.286 8.59943 183.289 7.64489C183.289 6.69318 183.43 5.8821 183.711 5.21165C183.995 4.54119 184.4 4.03125 184.926 3.68182C185.454 3.32955 186.083 3.15341 186.813 3.15341C187.543 3.15341 188.171 3.32955 188.697 3.68182C189.225 4.03409 189.632 4.54545 189.916 5.21591C190.2 5.88352 190.34 6.69318 190.337 7.64489C190.337 8.60227 190.195 9.42045 189.911 10.0994C189.63 10.7784 189.227 11.2969 188.701 11.6548C188.176 12.0128 187.546 12.1918 186.813 12.1918ZM186.813 10.6619C187.313 10.6619 187.712 10.4105 188.011 9.90767C188.309 9.40483 188.457 8.65057 188.454 7.64489C188.454 6.98295 188.386 6.43182 188.249 5.99148C188.116 5.55114 187.926 5.22017 187.678 4.99858C187.434 4.77699 187.146 4.66619 186.813 4.66619C186.316 4.66619 185.918 4.91477 185.62 5.41193C185.322 5.90909 185.171 6.65341 185.168 7.64489C185.168 8.31534 185.235 8.875 185.369 9.32386C185.505 9.76989 185.697 10.1051 185.944 10.3295C186.191 10.5511 186.481 10.6619 186.813 10.6619Z" fill="white"/>
</svg>
