<svg width="24" height="24" viewBox="0 0 24 24" fill="none" xmlns="http://www.w3.org/2000/svg">
<path d="M7.07805 2.23135C5.84523 2.39072 4.8843 2.73291 3.96086 3.35166C1.67805 4.8751 0.548359 7.59854 1.08273 10.2892C1.15773 10.6688 1.33117 11.2501 1.48586 11.6579C1.50461 11.7048 1.38742 11.7188 0.998359 11.7188C0.538984 11.7188 0.463984 11.7329 0.323359 11.8267C-0.103204 12.1126 -0.0938289 12.6751 0.346796 13.0032C0.463984 13.0923 0.557734 13.1017 1.42023 13.1251L2.36711 13.1485L2.79836 13.6173C3.03273 13.8751 4.86555 15.722 6.87648 17.7235C10.7671 21.6001 10.664 21.5063 11.3437 21.7267C11.6859 21.8392 12.314 21.8392 12.6562 21.7267C13.3359 21.5063 13.2327 21.6001 17.1234 17.7235C19.1343 15.722 20.9671 13.8751 21.2015 13.6173L21.6327 13.1485L22.5796 13.1251C23.4421 13.1017 23.5359 13.0923 23.653 13.0032C24.0937 12.6751 24.103 12.1126 23.6765 11.8267C23.5359 11.7329 23.4609 11.7188 23.0015 11.7188C22.6124 11.7188 22.4952 11.7048 22.514 11.6579C23.2874 9.63291 23.2218 7.71104 22.3124 5.90635C21.3749 4.04072 19.5655 2.7001 17.4702 2.31104C16.8187 2.18916 15.5952 2.20322 14.9671 2.33447C14.039 2.53604 13.1202 2.92979 12.4171 3.43135C12.2109 3.58135 12.0234 3.70322 11.9999 3.70322C11.9765 3.70322 11.789 3.58135 11.5827 3.43135C10.8749 2.92979 9.96086 2.53135 9.05617 2.34385C8.61086 2.2501 7.45305 2.18447 7.07805 2.23135ZM8.51711 3.67979C9.60461 3.85791 10.5093 4.29385 11.353 5.04385C11.8546 5.48916 12.1452 5.48916 12.6468 5.04385C14.3577 3.51572 16.6546 3.1876 18.6749 4.18135C20.639 5.14229 21.839 7.30791 21.614 9.4876C21.5484 10.1345 21.3937 10.7017 21.1171 11.2829L20.9109 11.7188H18.2859C16.5515 11.7188 15.6187 11.7376 15.5296 11.7704C15.4593 11.7938 14.9155 12.3048 14.3155 12.8954L13.2327 13.9735L11.5359 11.6017C10.5984 10.2985 9.78273 9.19697 9.7218 9.15479C9.66086 9.11729 9.51555 9.07041 9.39836 9.06104C9.2343 9.04229 9.14992 9.06104 8.99055 9.15479C8.87805 9.22041 8.24055 9.8251 7.57023 10.4954L6.35148 11.7188H4.72023H3.08898L2.88273 11.2829C1.75773 8.90635 2.49367 6.10322 4.64523 4.57979C5.33898 4.0876 6.08898 3.80635 7.12492 3.64229C7.41086 3.59541 8.12336 3.61416 8.51711 3.67979ZM10.8984 13.1251C11.789 14.3767 12.5905 15.4688 12.6796 15.5579C12.8437 15.7267 13.1296 15.7923 13.3921 15.7313C13.4812 15.7079 13.9593 15.2626 14.8124 14.4095L16.1015 13.1251H17.9062H19.7109L16.1718 16.6688C14.0671 18.7735 12.5577 20.2501 12.4499 20.3063C12.2015 20.4329 11.7984 20.4329 11.5499 20.3063C11.4421 20.2501 9.93273 18.7735 7.82805 16.6688L4.28898 13.1251H5.4843C6.1968 13.1251 6.75461 13.1063 6.86711 13.0735C7.0218 13.0313 7.2468 12.8298 8.15617 11.9298C8.76086 11.3251 9.25773 10.8376 9.26242 10.8423C9.26711 10.847 10.003 11.8735 10.8984 13.1251Z" fill="#797979"/>
</svg>
