<svg width="24" height="24" viewBox="0 0 24 24" fill="none" xmlns="http://www.w3.org/2000/svg">
<g clip-path="url(#clip0_2018_497)">
<path d="M8.25 0.0656242C8.16094 0.103125 6.37969 0.890625 4.28906 1.81875C0.248438 3.61406 0.164062 3.66094 0.05625 4.02187C0.0140625 4.1625 0 6.52969 0 13.7625C0 23.2734 0 23.3156 0.09375 23.5125C0.239063 23.8031 0.50625 23.9719 0.839063 23.9766C1.08281 23.9766 1.34063 23.8687 4.81406 22.3219C6.85313 21.4172 8.54531 20.6719 8.56875 20.6719C8.59219 20.6719 10.275 21.4125 12.3094 22.3172C15.7031 23.8312 16.0312 23.9672 16.275 23.9719C16.5375 23.9766 16.6219 23.9391 20.0625 22.2187C22.4672 21.0187 23.6344 20.4141 23.7328 20.3109C23.8125 20.2312 23.9062 20.0906 23.9344 20.0062C23.9813 19.8891 23.9953 17.5875 23.9953 10.2703L24 0.684374L23.9016 0.478125C23.7563 0.182812 23.4938 0.0234375 23.1516 0.0234375C22.8891 0.0234375 22.7719 0.0749989 19.5609 1.67812L16.2422 3.33281L12.5438 1.6875C9.89531 0.510937 8.78438 0.0374985 8.62969 0.0187492C8.50781 0.00937462 8.34375 0.0281239 8.25 0.0656242ZM7.73438 10.6594C7.73438 17.3672 7.72031 19.125 7.67813 19.1578C7.63125 19.1953 2.04844 21.6844 1.79063 21.7828C1.74375 21.8016 1.73438 20.1047 1.74375 13.3172L1.75781 4.82344L4.6875 3.51562C6.3 2.79844 7.64531 2.20781 7.67813 2.20781C7.72031 2.20312 7.73438 3.92344 7.73438 10.6594ZM12.4594 3.52031L15.4219 4.8375V13.3219C15.4219 21.1922 15.4172 21.8062 15.3422 21.7781C15.3 21.7594 13.95 21.1641 12.3422 20.4516L9.42188 19.1578V10.6828C9.42188 6.01875 9.43594 2.20312 9.45938 2.20312C9.47813 2.20312 10.8281 2.79375 12.4594 3.52031ZM22.2656 10.725V19.1953L19.7109 20.475L17.1562 21.75V13.275V4.80469L19.7016 3.52969C21.0984 2.82656 22.2469 2.25469 22.2563 2.25469C22.2609 2.25 22.2656 6.06094 22.2656 10.725Z" fill="#194E9D"/>
</g>
<defs>
<clipPath id="clip0_2018_497">
<rect width="24" height="24" fill="white"/>
</clipPath>
</defs>
</svg>
