<svg width="32" height="32" viewBox="0 0 32 32" fill="none" xmlns="http://www.w3.org/2000/svg">
<path d="M9.84377 3.03769C9.04377 3.15019 8.37502 3.29395 7.83752 3.46894C5.15627 4.34394 2.98127 6.4877 2.10002 9.12519C1.83752 9.91895 1.74377 10.4939 1.70627 11.5002C1.65002 13.0939 1.89377 14.2502 2.59377 15.6564C3.28752 17.0627 3.31877 17.0939 9.65627 23.2439C12.85 26.3439 15.4938 28.8627 15.6063 28.9127C15.8625 29.0252 16.1375 29.0252 16.3938 28.9127C16.6688 28.7939 19.5563 25.9627 19.6625 25.7064C19.7813 25.4252 19.7688 25.1627 19.625 24.8752C19.4813 24.5939 19.3125 24.4564 18.9875 24.3689C18.5125 24.2439 18.3375 24.3502 17.1375 25.5064C16.5313 26.0877 16.0188 26.5627 16 26.5627C15.9438 26.5627 7.00002 17.9064 5.90627 16.7939C5.23127 16.1127 4.50002 15.2002 4.50002 15.0377C4.50002 15.0189 4.88127 15.0002 5.34377 15.0002C6.24377 15.0002 6.48752 14.9439 6.71877 14.6939C6.78752 14.6127 7.10002 13.9564 7.41252 13.2314C7.72502 12.5002 8.00627 11.9127 8.03127 11.9189C8.05627 11.9252 8.61252 13.1064 9.26252 14.5439C10.0688 16.3127 10.5125 17.2252 10.6438 17.3627C10.9875 17.7252 11.55 17.7564 11.95 17.4377C12.0375 17.3689 12.6938 16.3752 13.4125 15.2189C14.1313 14.0689 14.7313 13.1252 14.75 13.1314C14.7688 13.1314 15.05 13.4877 15.375 13.9189C15.7 14.3564 16.05 14.7689 16.1438 14.8377C16.3063 14.9564 16.425 14.9689 17.5938 14.9877C18.7688 15.0064 18.8875 15.0002 19.1125 14.8814C19.8188 14.5189 19.825 13.4814 19.1188 13.1252C18.9188 13.0189 18.75 13.0002 18.0188 13.0002L17.1563 12.9939L16.3438 11.9002C15.4125 10.6377 15.1813 10.4064 14.825 10.3439C14.5438 10.3002 14.1063 10.4502 13.9375 10.6564C13.8875 10.7189 13.325 11.6002 12.6875 12.6127C12.05 13.6252 11.5063 14.4627 11.4813 14.4627C11.4563 14.4689 10.8438 13.1752 10.125 11.5939C9.26252 9.7002 8.76252 8.66895 8.65627 8.58145C8.28752 8.25644 7.68752 8.26895 7.33127 8.6127C7.20002 8.73145 6.89377 9.37519 6.25002 10.8877L5.34377 13.0002H4.55627H3.76877L3.72502 12.7127C3.65627 12.2002 3.68752 11.1564 3.78127 10.6439C4.20627 8.40019 5.71877 6.52519 7.83127 5.6127C10.2313 4.5752 12.9188 4.88144 15.0563 6.43144C15.8625 7.0127 16.1375 7.01895 16.9313 6.44394C19.1 4.87519 21.7625 4.56894 24.1688 5.6127C26.3375 6.54395 27.8813 8.52519 28.25 10.8314C28.3688 11.5627 28.3 12.8252 28.1 13.5564C27.8875 14.3252 27.4688 15.1814 27.0063 15.7939C26.8 16.0689 25.8688 17.0377 24.9125 17.9627C23.6438 19.2002 23.175 19.6939 23.1188 19.8564C22.9625 20.3377 23.1875 20.8564 23.65 21.0689C23.9688 21.2127 24.15 21.2127 24.45 21.0752C24.8063 20.9127 28 17.7877 28.55 17.0689C29.0938 16.3502 29.7438 15.0814 29.9688 14.2814C30.25 13.3064 30.3313 12.5877 30.2938 11.5002C30.2125 9.21894 29.375 7.3002 27.75 5.68769C26.4188 4.35645 24.7813 3.50019 22.9063 3.15019C22.0625 2.9877 20.3938 2.9877 19.5938 3.15019C18.4688 3.37519 17.3188 3.81269 16.4563 4.35019L16 4.63144L15.55 4.35019C14.6875 3.81269 13.5313 3.36894 12.4375 3.15644C11.9313 3.05644 10.2438 2.98145 9.84377 3.03769Z" fill="#194E9D"/>
</svg>
