<svg width="24" height="25" viewBox="0 0 24 25" fill="none" xmlns="http://www.w3.org/2000/svg">
<g clip-path="url(#clip0_2018_514)">
<path d="M4.19074 0.570314C3.60949 0.696877 3.50167 0.781252 1.98761 2.3C0.665736 3.61719 0.562612 3.73438 0.407924 4.0625C0.150112 4.60625 0.0891741 4.89688 0.0610491 5.66563C0.0329241 6.43906 0.0938616 6.95 0.328237 7.84063C1.73917 13.1984 8.04855 20.2484 14.086 23.2109C15.8767 24.0875 17.2314 24.4719 18.5626 24.4766C19.3782 24.4766 19.7907 24.3922 20.3579 24.1156C20.7235 23.9375 20.8173 23.8484 22.1345 22.5359C23.6064 21.0641 23.6907 20.9563 23.8782 20.3328C23.9767 20.0047 23.9767 19.3859 23.8782 19.0578C23.7095 18.4953 23.6392 18.4109 21.7782 16.5406C20.7985 15.5516 19.8657 14.6516 19.711 14.5391C18.7829 13.8781 17.5876 13.9719 16.8095 14.7641C16.5751 15.0031 16.4814 15.1438 16.322 15.5234C16.2095 15.7766 16.0642 16.0625 15.9939 16.1563C15.5439 16.7656 14.6814 17.15 13.9454 17.075C12.8485 16.9578 11.2126 15.9641 9.82511 14.5766C8.14699 12.8984 7.15792 10.9672 7.39699 9.84219C7.50949 9.31719 7.8798 8.76875 8.31574 8.47813C8.41886 8.40313 8.64386 8.28594 8.81261 8.21563C9.30011 8.00938 9.4173 7.93906 9.64699 7.74219C10.4251 7.0625 10.5939 5.7875 10.0267 4.88281C9.86261 4.61563 6.62824 1.34844 6.23449 1.04375C5.92042 0.804689 5.50792 0.617189 5.13761 0.551563C4.78605 0.485939 4.55167 0.490627 4.19074 0.570314Z" fill="white"/>
</g>
<defs>
<clipPath id="clip0_2018_514">
<rect width="24" height="24" fill="white" transform="translate(0 0.5)"/>
</clipPath>
</defs>
</svg>
