<svg width="28" height="28" viewBox="0 0 28 28" fill="none" xmlns="http://www.w3.org/2000/svg">
<path d="M13.3602 3.50575C13.1742 3.52762 12.8789 3.60419 12.7039 3.67528C12.3758 3.812 1.75 9.96981 1.44375 10.1995C1.16484 10.4128 0.984375 10.8393 0.984375 11.2604C0.984375 11.6979 1.10469 11.9768 1.4 12.2558C1.52031 12.3651 2.34609 12.8792 3.24297 13.3987L4.86719 14.3393V16.5378C4.86719 17.7409 4.89453 18.9003 4.92188 19.1136C4.96016 19.3706 5.05312 19.6495 5.20078 19.9558C5.58359 20.7268 5.72578 20.8362 8.4 22.3784C9.69063 23.1167 10.9211 23.8112 11.1289 23.9151C11.5938 24.1448 12.2773 24.369 12.7805 24.4456C13.1906 24.5112 14.2406 24.5276 14.5797 24.4729C15.5914 24.3089 16.1492 24.0792 17.6641 23.2097C18.3422 22.8159 19.4688 22.1651 20.1742 21.7604C21.6836 20.8909 21.957 20.6612 22.307 19.9558C22.4547 19.6495 22.5477 19.3706 22.5859 19.1136C22.6133 18.9003 22.6406 17.7464 22.6406 16.5378V14.3448L23.3516 13.9292L24.0625 13.519V16.6854V19.8573L23.9039 19.994C23.8109 20.0706 23.6742 20.2675 23.5922 20.4315C23.4664 20.694 23.45 20.7761 23.4719 21.1097C23.5758 22.5479 25.4242 22.9253 26.0969 21.6401C26.2883 21.2792 26.2719 20.7323 26.0586 20.3495C25.9711 20.1909 25.8398 20.0214 25.7742 19.9776L25.6484 19.8956V16.237V12.5839L25.8016 12.5018C26.0203 12.387 26.343 12.0315 26.4414 11.8018C26.4852 11.687 26.5234 11.4409 26.5234 11.244C26.5234 10.7901 26.3266 10.3909 25.9766 10.1393C25.8398 10.0464 23.3078 8.55888 20.3438 6.84169C16.3133 4.50106 14.8695 3.68622 14.6016 3.60966C14.1586 3.48388 13.7922 3.45106 13.3602 3.50575ZM14.175 5.12997C14.432 5.22294 24.7734 11.2112 24.7734 11.2659C24.768 11.2878 18.4133 14.9901 15.2305 16.8222C14.093 17.4784 13.907 17.5386 13.4586 17.4237C13.3 17.3854 11.1672 16.1823 7.96797 14.3229C5.09141 12.655 2.73984 11.2823 2.73984 11.2659C2.73438 11.2495 3.03516 11.0636 3.40703 10.8503C3.77344 10.637 6.13594 9.26981 8.65156 7.80419C11.1672 6.34403 13.3109 5.1245 13.4094 5.09169C13.6773 5.01513 13.8906 5.02606 14.175 5.12997ZM9.59766 17.0901C11.2219 18.0308 12.6875 18.8511 12.8516 18.9058C13.2945 19.0534 14.3008 19.0425 14.7164 18.8839C14.8859 18.8237 15.6406 18.4136 16.3844 17.9815C19.9609 15.8979 20.8852 15.3675 20.9672 15.3347C21.0492 15.3018 21.0547 15.4604 21.0547 17.0683C21.0547 18.1183 21.0328 18.9222 21 19.0425C20.8633 19.5237 20.7375 19.6167 18.3203 21.0167C15.7664 22.4878 15.4656 22.6464 14.8477 22.8104C14.2352 22.9745 13.2727 22.9745 12.6602 22.8104C12.0477 22.6464 11.7523 22.4933 9.1875 21.0112C6.77031 19.6167 6.64453 19.5237 6.50781 19.0425C6.475 18.9222 6.45312 18.1183 6.45312 17.0683C6.45312 15.4058 6.45859 15.3018 6.55156 15.3347C6.60078 15.3565 7.97344 16.144 9.59766 17.0901Z" fill="#797979"/>
</svg>
